<?xml version="1.0" standalone="no"?>
<!DOCTYPE svg PUBLIC "-//W3C//DTD SVG 20010904//EN"
 "http://www.w3.org/TR/2001/REC-SVG-20010904/DTD/svg10.dtd">
<svg version="1.0" xmlns="http://www.w3.org/2000/svg"
 width="512.000000pt" height="512.000000pt" viewBox="0 0 512.000000 512.000000"
 preserveAspectRatio="xMidYMid meet">
<metadata>
Created by potrace 1.14, written by Peter Selinger 2001-2017
</metadata>
<g transform="translate(0.000000,512.000000) scale(0.100000,-0.100000)"
fill="#000000" stroke="none">
<path d="M4570 4523 c0 -6 -10 -8 -22 -6 -13 2 -133 -21 -268 -52 -135 -30
-258 -58 -275 -61 -16 -2 -43 -8 -60 -13 -16 -5 -55 -14 -85 -20 -30 -7 -154
-34 -275 -62 -227 -52 -805 -182 -1305 -295 -157 -35 -355 -80 -440 -99 -85
-20 -324 -74 -530 -120 -666 -150 -984 -225 -992 -233 -4 -4 3 -38 16 -74 14
-37 22 -69 18 -72 -3 -3 0 -6 6 -6 7 0 12 -8 12 -18 0 -10 4 -22 9 -28 5 -5
11 -18 13 -29 1 -11 7 -23 12 -27 6 -4 4 -14 -5 -24 -8 -10 -9 -15 -2 -11 11
7 14 -69 14 -462 0 -62 6 -113 18 -151 14 -44 16 -62 7 -71 -8 -9 -8 -10 0 -6
13 7 29 -38 19 -53 -3 -5 -1 -11 4 -15 6 -3 10 -299 10 -788 0 -430 2 -792 5
-805 3 -13 12 -37 21 -54 12 -25 13 -34 2 -47 -10 -14 -10 -14 4 -3 13 10 19
10 29 -2 6 -9 9 -20 5 -25 -4 -7 1 -8 12 -4 10 3 15 3 11 -2 -4 -4 14 -19 40
-33 26 -14 49 -28 52 -31 7 -9 44 -12 138 -12 62 0 81 -3 75 -12 -5 -9 -3 -9
8 -1 21 17 123 18 113 2 -6 -10 -5 -10 7 -1 20 16 122 16 112 0 -5 -9 -3 -9 8
-1 21 17 123 18 113 2 -6 -10 -5 -10 7 -1 20 16 122 16 112 0 -5 -9 -3 -9 8
-1 21 17 123 18 113 2 -6 -10 -5 -10 7 -1 20 16 122 16 112 0 -5 -9 -3 -9 8
-1 21 17 123 18 113 2 -6 -10 -5 -10 7 -1 20 16 122 16 112 0 -5 -9 -3 -9 8 0
20 16 762 16 752 0 -5 -9 -3 -9 8 0 20 16 122 16 112 0 -5 -9 -3 -9 8 -1 21
17 123 18 113 2 -6 -10 -5 -10 7 -1 20 16 122 16 112 0 -5 -9 -3 -9 8 -1 21
17 122 18 113 2 -6 -10 -4 -11 7 0 17 16 46 16 52 0 4 -10 6 -10 6 0 1 7 14
12 32 12 16 0 28 -4 25 -8 -3 -5 1 -9 9 -9 8 0 12 4 9 9 -3 4 2 8 11 8 10 0
13 -5 9 -12 -6 -10 -5 -10 7 -1 20 16 122 16 112 0 -5 -9 -3 -9 8 -1 21 17
123 18 113 2 -6 -10 -5 -10 7 -1 20 16 122 16 112 0 -5 -9 -3 -9 8 -1 21 17
123 18 113 2 -6 -10 -5 -10 7 -2 20 17 122 18 113 1 -6 -9 -5 -9 7 0 10 8 108
11 362 10 191 -1 347 2 347 6 0 5 4 6 9 2 5 -3 13 -1 16 5 5 8 12 7 23 -2 10
-7 14 -8 10 -4 -11 13 29 39 45 30 6 -4 9 -4 5 0 -4 5 11 26 33 48 21 22 39
45 39 51 0 7 5 6 11 -3 9 -13 10 -12 5 2 -3 10 1 32 8 50 8 18 15 36 15 41 1
4 1 8 2 10 0 3 0 2019 0 2100 l-1 67 -1819 0 c-1624 0 -1819 2 -1825 15 -8 21
41 40 60 24 12 -10 13 -8 8 6 -6 15 -3 17 14 13 12 -4 22 -2 22 3 0 5 3 8 8 8
4 -1 9 0 12 1 3 1 12 3 20 5 8 2 26 7 40 11 23 7 24 6 10 -12 -9 -12 -4 -10
14 6 16 14 25 18 21 10 -5 -10 0 -8 13 4 26 23 41 14 21 -11 -12 -16 -12 -17
1 -7 8 6 22 10 31 9 9 -2 16 3 16 11 0 11 -3 11 -15 1 -13 -10 -14 -9 -10 3 3
8 15 15 27 14 11 0 21 4 21 9 0 5 11 7 25 5 13 -3 22 -1 19 3 -3 5 2 9 11 9 9
0 14 -4 11 -9 -7 -11 21 -8 31 4 4 4 2 5 -4 1 -7 -4 -13 -3 -13 2 0 10 57 22
65 14 3 -3 -2 -13 -11 -23 -12 -14 -13 -18 -2 -25 7 -4 10 -3 5 1 -4 5 -1 15
7 24 8 9 15 21 15 26 0 6 8 12 18 14 13 2 15 0 8 -11 -6 -8 -3 -6 7 4 19 21
32 24 23 6 -4 -7 0 -5 8 5 16 19 34 7 21 -15 -5 -7 -3 -8 5 -4 7 5 10 15 7 23
-4 11 -2 13 9 9 8 -3 15 -2 15 3 0 5 17 12 38 16 20 5 46 10 57 13 11 2 32 5
47 6 14 0 24 4 22 7 -2 3 17 10 42 16 40 9 45 9 40 -6 -5 -13 -4 -13 8 2 7 9
35 24 62 32 59 18 57 18 48 3 -5 -9 -2 -8 9 1 10 7 41 19 70 26 28 7 61 16 71
21 15 6 17 4 11 -7 -7 -11 -6 -12 6 -2 8 6 43 19 79 28 36 9 73 18 82 21 13 4
16 0 13 -16 -2 -11 0 -18 6 -15 5 4 7 10 4 15 -8 13 12 22 94 41 49 11 78 14
82 7 4 -5 9 -2 13 7 4 11 13 15 26 12 10 -3 20 -1 22 3 3 9 60 22 100 22 15 0
25 4 22 9 -3 5 0 9 5 9 6 0 11 -6 11 -12 0 -10 2 -10 9 0 7 12 67 31 141 46
14 3 63 15 109 26 47 12 93 19 103 17 11 -3 16 -1 11 6 -4 6 0 8 10 4 10 -3
17 -2 17 3 0 6 5 10 11 10 5 0 7 -4 4 -10 -3 -5 -2 -10 3 -10 6 0 13 7 16 16
4 11 13 14 28 11 12 -4 27 -2 32 2 14 10 193 54 224 55 12 0 22 3 22 7 0 13
82 20 96 8 12 -9 13 -9 9 3 -4 11 2 18 20 22 14 4 30 4 35 1 4 -3 10 -1 12 5
1 5 20 12 42 16 21 3 48 8 60 11 11 3 31 6 44 7 12 0 22 4 22 9 0 4 5 7 11 7
6 0 8 -8 5 -17 -4 -11 2 -8 13 7 11 14 23 22 27 18 3 -4 15 -3 26 3 14 7 23 7
34 -2 12 -10 15 -10 12 2 -2 9 6 14 24 14 14 -1 24 4 21 9 -3 5 6 7 21 4 14
-3 26 -1 26 4 0 6 7 8 15 5 8 -4 17 -2 20 3 4 6 13 10 22 10 10 0 13 -4 7 -13
-5 -7 -2 -6 6 3 17 18 166 54 182 44 6 -4 8 -2 5 3 -8 12 57 28 73 18 6 -3 10
-2 10 3 0 15 54 22 62 9 5 -8 8 -6 8 5 0 9 8 17 18 16 9 0 28 3 42 7 14 4 39
7 57 8 17 1 29 5 27 8 -2 4 5 9 15 12 18 4 16 19 -44 257 -57 226 -75 286 -75
253z"/>
<path d="M4634 3960 c0 -13 4 -16 10 -10 7 7 7 13 0 20 -6 6 -10 3 -10 -10z"/>
<path d="M4526 3918 c3 -5 10 -6 15 -3 13 9 11 12 -6 12 -8 0 -12 -4 -9 -9z"/>
<path d="M4308 3903 c6 -2 9 -10 6 -15 -4 -7 -2 -8 5 -4 13 9 5 26 -12 25 -9
0 -8 -2 1 -6z"/>
<path d="M4227 3859 c7 -7 15 -10 18 -7 3 3 -2 9 -12 12 -14 6 -15 5 -6 -5z"/>
<path d="M4135 3850 c-4 -6 -10 -8 -14 -6 -4 3 -8 -1 -8 -9 0 -13 4 -12 19 2
18 16 22 23 14 23 -3 0 -8 -5 -11 -10z"/>
<path d="M4176 3838 c3 -5 10 -6 15 -3 13 9 11 12 -6 12 -8 0 -12 -4 -9 -9z"/>
<path d="M3989 3823 c-13 -16 -12 -17 4 -4 16 13 21 21 13 21 -2 0 -10 -8 -17
-17z"/>
<path d="M4015 3809 c-4 -6 -5 -12 -2 -15 2 -3 7 2 10 11 7 17 1 20 -8 4z"/>
<path d="M3839 3773 c-13 -16 -12 -17 4 -4 16 13 21 21 13 21 -2 0 -10 -8 -17
-17z"/>
<path d="M3790 3761 c0 -6 4 -13 10 -16 6 -3 7 1 4 9 -7 18 -14 21 -14 7z"/>
<path d="M3959 3753 c-13 -16 -12 -17 4 -4 16 13 21 21 13 21 -2 0 -10 -8 -17
-17z"/>
<path d="M3615 3741 c-6 -10 11 -24 32 -27 7 -1 15 1 18 6 2 4 -5 7 -18 6 -13
-1 -21 4 -19 12 2 14 -4 16 -13 3z"/>
<path d="M3571 3727 c-8 -10 -7 -14 2 -14 8 0 14 6 14 14 0 7 -1 13 -2 13 -2
0 -8 -6 -14 -13z"/>
<path d="M3700 3726 c0 -2 8 -10 18 -17 15 -13 16 -12 3 4 -13 16 -21 21 -21
13z"/>
<path d="M3506 3698 c3 -5 10 -6 15 -3 13 9 11 12 -6 12 -8 0 -12 -4 -9 -9z"/>
<path d="M3547 3699 c7 -7 15 -10 18 -7 3 3 -2 9 -12 12 -14 6 -15 5 -6 -5z"/>
<path d="M3464 3682 c23 -26 23 -26 23 -7 0 8 -3 13 -5 10 -3 -3 -12 1 -21 7
-10 8 -9 4 3 -10z"/>
<path d="M3355 3681 c-3 -5 -2 -12 3 -15 5 -3 9 1 9 9 0 17 -3 19 -12 6z"/>
<path d="M3509 3663 c-13 -16 -12 -17 4 -4 16 13 21 21 13 21 -2 0 -10 -8 -17
-17z"/>
<path d="M3316 3653 c-6 -14 -5 -15 5 -6 7 7 10 15 7 18 -3 3 -9 -2 -12 -12z"/>
<path d="M3153 3625 c0 -8 4 -12 9 -9 5 3 6 10 3 15 -9 13 -12 11 -12 -6z"/>
<path d="M3110 3626 c0 -2 7 -7 16 -10 8 -3 12 -2 9 4 -6 10 -25 14 -25 6z"/>
<path d="M3290 3620 c0 -5 5 -10 11 -10 5 0 7 5 4 10 -3 6 -8 10 -11 10 -2 0
-4 -4 -4 -10z"/>
<path d="M2989 3583 c-13 -16 -12 -17 4 -4 16 13 21 21 13 21 -2 0 -10 -8 -17
-17z"/>
<path d="M2935 3579 c-3 -4 2 -6 10 -5 21 3 28 13 10 13 -9 0 -18 -4 -20 -8z"/>
<path d="M2859 3553 c-12 -16 -12 -17 2 -6 9 7 20 9 24 5 5 -4 5 -1 1 6 -9 16
-11 15 -27 -5z"/>
<path d="M2755 3530 c-4 -6 -10 -8 -15 -5 -4 3 -13 -2 -19 -9 -9 -10 -9 -16
-1 -21 6 -4 9 -1 8 6 -2 7 2 13 9 14 12 0 42 25 31 25 -4 0 -10 -5 -13 -10z"/>
<path d="M2910 3536 c0 -2 8 -10 18 -17 15 -13 16 -12 3 4 -13 16 -21 21 -21
13z"/>
<path d="M2537 3470 c-10 -12 -10 -13 3 -4 8 6 28 10 43 9 15 -1 29 1 32 4 8
14 -67 6 -78 -9z"/>
<path d="M2466 3462 c-3 -5 1 -9 9 -9 8 0 15 4 15 9 0 4 -4 8 -9 8 -6 0 -12
-4 -15 -8z"/>
<path d="M2350 3441 c0 -6 4 -12 8 -15 5 -3 9 1 9 9 0 8 -4 15 -9 15 -4 0 -8
-4 -8 -9z"/>
<path d="M2280 3415 c-7 -8 -17 -12 -23 -8 -6 4 -7 1 -3 -6 6 -9 13 -8 27 5
10 9 19 19 19 21 0 7 -8 2 -20 -12z"/>
<path d="M2410 3419 c0 -5 5 -7 10 -4 6 3 10 8 10 11 0 2 -4 4 -10 4 -5 0 -10
-5 -10 -11z"/>
<path d="M2445 3420 c-3 -6 1 -7 9 -4 18 7 21 14 7 14 -6 0 -13 -4 -16 -10z"/>
<path d="M2175 3400 c-3 -5 -1 -10 4 -10 6 0 11 5 11 10 0 6 -2 10 -4 10 -3 0
-8 -4 -11 -10z"/>
<path d="M2210 3379 c0 -5 5 -7 10 -4 6 3 10 8 10 11 0 2 -4 4 -10 4 -5 0 -10
-5 -10 -11z"/>
<path d="M2053 3365 c0 -8 3 -13 5 -10 3 3 12 -1 21 -7 10 -8 9 -4 -3 10 -23
26 -23 26 -23 7z"/>
<path d="M2096 3359 c4 -8 30 -6 38 2 3 3 -5 5 -19 5 -13 0 -22 -3 -19 -7z"/>
<path d="M2150 3359 c0 -5 5 -7 10 -4 6 3 10 8 10 11 0 2 -4 4 -10 4 -5 0 -10
-5 -10 -11z"/>
<path d="M1956 3318 c3 -5 10 -6 15 -3 13 9 11 12 -6 12 -8 0 -12 -4 -9 -9z"/>
<path d="M1990 3320 c0 -5 5 -10 11 -10 5 0 7 5 4 10 -3 6 -8 10 -11 10 -2 0
-4 -4 -4 -10z"/>
<path d="M1746 3279 c4 -8 30 -6 38 2 3 3 -5 5 -19 5 -13 0 -22 -3 -19 -7z"/>
<path d="M1649 3243 c-13 -16 -12 -17 4 -4 16 13 21 21 13 21 -2 0 -10 -8 -17
-17z"/>
<path d="M1493 3205 c0 -8 4 -12 9 -9 5 3 6 10 3 15 -9 13 -12 11 -12 -6z"/>
<path d="M1440 3206 c0 -2 8 -10 18 -17 15 -13 16 -12 3 4 -13 16 -21 21 -21
13z"/>
<path d="M1329 3163 c-13 -16 -12 -17 4 -4 16 13 21 21 13 21 -2 0 -10 -8 -17
-17z"/>
<path d="M613 715 c0 -8 4 -12 9 -9 4 3 8 9 8 15 0 5 -4 9 -8 9 -5 0 -9 -7 -9
-15z"/>
<path d="M695 680 c2 -27 10 -33 12 -10 1 11 -2 22 -6 24 -4 3 -7 -4 -6 -14z"/>
<path d="M766 681 c-12 -13 -14 -21 -6 -26 6 -4 9 -1 8 7 -2 7 2 12 8 11 6 -1
11 5 11 13 0 18 0 18 -21 -5z"/>
<path d="M890 696 c0 -2 8 -10 18 -17 15 -13 16 -12 3 4 -13 16 -21 21 -21 13z"/>
<path d="M1011 687 c-8 -10 -7 -14 2 -14 8 0 14 6 14 14 0 7 -1 13 -2 13 -2 0
-8 -6 -14 -13z"/>
<path d="M1130 696 c0 -2 8 -10 18 -17 15 -13 16 -12 3 4 -13 16 -21 21 -21
13z"/>
<path d="M1251 687 c-8 -10 -7 -14 2 -14 8 0 14 6 14 14 0 7 -1 13 -2 13 -2 0
-8 -6 -14 -13z"/>
<path d="M1370 696 c0 -2 8 -10 18 -17 15 -13 16 -12 3 4 -13 16 -21 21 -21
13z"/>
<path d="M1491 687 c-8 -10 -7 -14 2 -14 8 0 14 6 14 14 0 7 -1 13 -2 13 -2 0
-8 -6 -14 -13z"/>
<path d="M1610 696 c0 -2 8 -10 18 -17 15 -13 16 -12 3 4 -13 16 -21 21 -21
13z"/>
<path d="M1731 687 c-8 -10 -7 -14 2 -14 8 0 14 6 14 14 0 7 -1 13 -2 13 -2 0
-8 -6 -14 -13z"/>
<path d="M1862 684 c10 -10 20 -16 22 -13 3 3 -5 11 -17 18 -21 13 -21 12 -5
-5z"/>
<path d="M1926 685 c-18 -14 -18 -14 1 -12 11 0 20 7 20 14 0 7 -1 13 -1 13
-1 0 -9 -7 -20 -15z"/>
<path d="M2011 687 c-8 -10 -7 -14 2 -14 8 0 14 6 14 14 0 7 -1 13 -2 13 -2 0
-8 -6 -14 -13z"/>
<path d="M2091 687 c-8 -10 -7 -14 2 -14 8 0 14 6 14 14 0 7 -1 13 -2 13 -2 0
-8 -6 -14 -13z"/>
<path d="M2171 687 c-8 -10 -7 -14 2 -14 8 0 14 6 14 14 0 7 -1 13 -2 13 -2 0
-8 -6 -14 -13z"/>
<path d="M2251 687 c-8 -10 -7 -14 2 -14 8 0 14 6 14 14 0 7 -1 13 -2 13 -2 0
-8 -6 -14 -13z"/>
<path d="M2331 687 c-8 -10 -7 -14 2 -14 8 0 14 6 14 14 0 7 -1 13 -2 13 -2 0
-8 -6 -14 -13z"/>
<path d="M2411 687 c-8 -10 -7 -14 2 -14 8 0 14 6 14 14 0 7 -1 13 -2 13 -2 0
-8 -6 -14 -13z"/>
<path d="M2491 687 c-8 -10 -7 -14 2 -14 8 0 14 6 14 14 0 7 -1 13 -2 13 -2 0
-8 -6 -14 -13z"/>
<path d="M2611 687 c-8 -10 -7 -14 2 -14 8 0 14 6 14 14 0 7 -1 13 -2 13 -2 0
-8 -6 -14 -13z"/>
<path d="M2730 696 c0 -2 8 -10 18 -17 15 -13 16 -12 3 4 -13 16 -21 21 -21
13z"/>
<path d="M2851 687 c-8 -10 -7 -14 2 -14 8 0 14 6 14 14 0 7 -1 13 -2 13 -2 0
-8 -6 -14 -13z"/>
<path d="M2970 696 c0 -2 8 -10 18 -17 15 -13 16 -12 3 4 -13 16 -21 21 -21
13z"/>
<path d="M3091 687 c-8 -10 -7 -14 2 -14 8 0 14 6 14 14 0 7 -1 13 -2 13 -2 0
-8 -6 -14 -13z"/>
<path d="M3251 687 c-8 -10 -7 -14 2 -14 8 0 14 6 14 14 0 7 -1 13 -2 13 -2 0
-8 -6 -14 -13z"/>
<path d="M3370 696 c0 -2 8 -10 18 -17 15 -13 16 -12 3 4 -13 16 -21 21 -21
13z"/>
<path d="M3491 687 c-8 -10 -7 -14 2 -14 8 0 14 6 14 14 0 7 -1 13 -2 13 -2 0
-8 -6 -14 -13z"/>
<path d="M3610 696 c0 -2 8 -10 18 -17 15 -13 16 -12 3 4 -13 16 -21 21 -21
13z"/>
<path d="M3731 687 c-8 -10 -7 -14 2 -14 8 0 14 6 14 14 0 7 -1 13 -2 13 -2 0
-8 -6 -14 -13z"/>
<path d="M3846 685 c-18 -14 -18 -14 1 -12 11 0 20 7 20 14 0 7 -1 13 -1 13
-1 0 -9 -7 -20 -15z"/>
<path d="M3931 687 c-8 -10 -7 -14 2 -14 8 0 14 6 14 14 0 7 -1 13 -2 13 -2 0
-8 -6 -14 -13z"/>
<path d="M4011 687 c-8 -10 -7 -14 2 -14 8 0 14 6 14 14 0 7 -1 13 -2 13 -2 0
-8 -6 -14 -13z"/>
<path d="M4091 687 c-8 -10 -7 -14 2 -14 8 0 14 6 14 14 0 7 -1 13 -2 13 -2 0
-8 -6 -14 -13z"/>
<path d="M4171 687 c-8 -10 -7 -14 2 -14 8 0 14 6 14 14 0 7 -1 13 -2 13 -2 0
-8 -6 -14 -13z"/>
<path d="M4251 687 c-8 -10 -7 -14 2 -14 8 0 14 6 14 14 0 7 -1 13 -2 13 -2 0
-8 -6 -14 -13z"/>
<path d="M4331 687 c-8 -10 -7 -14 2 -14 8 0 14 6 14 14 0 7 -1 13 -2 13 -2 0
-8 -6 -14 -13z"/>
<path d="M4411 687 c-8 -10 -7 -14 2 -14 8 0 14 6 14 14 0 7 -1 13 -2 13 -2 0
-8 -6 -14 -13z"/>
<path d="M813 675 c0 -8 4 -12 9 -9 5 3 6 10 3 15 -9 13 -12 11 -12 -6z"/>
<path d="M1053 675 c0 -8 4 -12 9 -9 5 3 6 10 3 15 -9 13 -12 11 -12 -6z"/>
<path d="M1293 675 c0 -8 4 -12 9 -9 5 3 6 10 3 15 -9 13 -12 11 -12 -6z"/>
<path d="M1533 675 c0 -8 4 -12 9 -9 5 3 6 10 3 15 -9 13 -12 11 -12 -6z"/>
<path d="M1773 675 c0 -8 4 -12 9 -9 5 3 6 10 3 15 -9 13 -12 11 -12 -6z"/>
<path d="M2653 675 c0 -8 4 -12 9 -9 5 3 6 10 3 15 -9 13 -12 11 -12 -6z"/>
<path d="M2893 675 c0 -8 4 -12 9 -9 5 3 6 10 3 15 -9 13 -12 11 -12 -6z"/>
<path d="M3293 675 c0 -8 4 -12 9 -9 5 3 6 10 3 15 -9 13 -12 11 -12 -6z"/>
<path d="M3533 675 c0 -8 4 -12 9 -9 5 3 6 10 3 15 -9 13 -12 11 -12 -6z"/>
<path d="M645 660 c-3 -6 1 -7 9 -4 18 7 21 14 7 14 -6 0 -13 -4 -16 -10z"/>
<path d="M3125 640 c10 -11 20 -20 23 -20 3 0 -3 9 -13 20 -10 11 -20 20 -23
20 -3 0 3 -9 13 -20z"/>
<path d="M2696 638 c3 -5 10 -6 15 -3 13 9 11 12 -6 12 -8 0 -12 -4 -9 -9z"/>
<path d="M2895 641 c-3 -5 -2 -12 3 -15 5 -3 9 1 9 9 0 17 -3 19 -12 6z"/>
<path d="M2950 641 c0 -6 4 -13 10 -16 6 -3 7 1 4 9 -7 18 -14 21 -14 7z"/>
<path d="M3375 641 c-3 -5 -2 -12 3 -15 5 -3 9 1 9 9 0 17 -3 19 -12 6z"/>
<path d="M3615 641 c-3 -5 -2 -12 3 -15 5 -3 9 1 9 9 0 17 -3 19 -12 6z"/>
<path d="M3805 640 c-3 -6 1 -7 9 -4 18 7 21 14 7 14 -6 0 -13 -4 -16 -10z"/>
</g>
</svg>
